<?xml version="1.0" encoding="UTF-8"?>
<svg width="44px" height="44px" viewBox="0 0 44 44" version="1.1" xmlns="http://www.w3.org/2000/svg" xmlns:xlink="http://www.w3.org/1999/xlink">
    <!-- Generator: Sketch 52.4 (67378) - http://www.bohemiancoding.com/sketch -->
    <title>哭-1</title>
    <desc>Created with Sketch.</desc>
    <g id="Page-1" stroke="none" stroke-width="1" fill="none" fill-rule="evenodd">
        <g id="iPhone-8-Copy-26" transform="translate(-112.000000, -469.000000)">
            <g id="哭-1" transform="translate(112.000000, 469.000000)">
                <g id="分组">
                    <path d="M0.859977563,22.0001115 L0.859977563,22.0001147 C0.859979326,33.6754682 10.3247581,43.1402487 22.0001115,43.1402487 C33.675465,43.1402469 43.1402455,33.6754682 43.1402455,22.0001147 C43.1402455,10.3247613 33.675465,0.859980755 22.0001115,0.859980755 C10.3247581,0.859980755 0.859977563,10.3247613 0.859977563,22.0001147 L0.859977563,22.0001115 Z" id="路径" fill="#FDDF6D"></path>
                    <path d="M26.5302262,40.0191638 C14.8549157,40.0191638 5.39017815,30.5545121 5.39017815,18.8791157 C5.39017815,12.641421 8.0923141,7.03553944 12.38928,3.16611306 C5.54529552,6.66549213 0.859977563,13.7855942 0.859977563,22.0000256 C0.859977563,33.6753361 10.3246292,43.1400736 22.0000256,43.1400736 C27.4376413,43.1400736 32.3952096,41.0863369 36.1409717,37.7132001 C33.2575074,39.1874597 29.9911052,40.0191638 26.5302262,40.0191638 Z" id="路径" fill="#FCC56B"></path>
                    <path d="M16.3974956,18.3605682 L16.3974956,18.3605686 C16.3974959,19.7854742 17.5526087,20.9405873 18.9775143,20.9405873 C20.4024198,20.940587 21.5575329,19.7854742 21.5575329,18.3605686 C21.5575329,16.935663 20.4024198,15.78055 18.9775143,15.78055 C17.5526087,15.78055 16.3974956,16.935663 16.3974956,18.3605686 C16.3974956,18.3605686 16.3974956,18.3605686 16.3974956,18.3605687 L16.3974956,18.3605682 Z M30.9236141,18.3605682 L30.9236141,18.3605679 C30.9236139,19.7854735 32.0787272,20.9405865 33.5036327,20.9405865 C34.9285383,20.9405867 36.0836514,19.7854735 36.0836514,18.3605679 C36.0836514,18.3605679 36.0836514,18.3605678 36.0836514,18.3605678 C36.0836514,16.9356622 34.9285383,15.7805491 33.5036327,15.7805491 C32.0787272,15.7805491 30.9236141,16.9356622 30.9236141,18.3605677 C30.9236141,18.3605678 30.9236141,18.3605678 30.9236141,18.3605679 L30.9236141,18.3605682 Z" id="形状" fill="#FFFFFF" fill-rule="nonzero"></path>
                    <path d="M31.3887084,36.4294643 C31.0763553,36.4298518 30.788387,36.2607292 30.6365826,35.987745 C29.830316,34.5403839 28.301572,33.6413048 26.6469295,33.6413048 C25.0343964,33.6413048 23.488293,34.5494933 22.6118154,36.0114638 C22.3675808,36.4187221 21.8393223,36.55098 21.4319781,36.3068313 C21.0245479,36.0625967 20.8923759,35.5344242 21.1366106,35.126994 C22.3221198,33.1496558 24.4336925,31.9212637 26.6471014,31.9212637 C28.9253071,31.9212637 31.029833,33.1587651 32.1394593,35.1507987 C32.3706315,35.5657054 32.2215297,36.0894951 31.8067089,36.3204954 C31.6789777,36.3919439 31.5350649,36.4294608 31.3887085,36.4294643 Z" id="路径" fill="#7F184C"></path>
                    <path d="M21.4221812,29.3517295 C21.4221812,30.8237546 20.2289376,32.0169123 18.7569984,32.0169123 C17.2850592,32.0169123 16.0918156,30.8236687 16.0918156,29.3517295 C16.0918156,27.8797903 18.7569984,24.0411295 18.7569984,24.0411295 C18.7569984,24.0411295 21.4221812,27.8798762 21.4221812,29.3517295 Z" id="路径" fill="#3FA9F5"></path>
                    <path d="M40.6715161,10.3595199 C38.5539277,6.96971124 35.5565101,4.2175596 32.0030763,2.40066686 C31.5804352,2.18470567 31.0621455,2.35194024 30.8458406,2.77483917 C30.6295356,3.1977381 30.797114,3.71594182 31.2200129,3.93216083 C34.496212,5.6074284 37.2600512,8.14516573 39.2127253,11.2708881 C41.2193683,14.4830637 42.2800961,18.1931618 42.2800961,22.0000256 C42.2800961,33.1825699 33.1825699,42.2800101 22.0001115,42.2800101 C10.8176532,42.2800101 1.72004106,33.182398 1.72004106,21.9999397 C1.72004106,10.8174813 10.8174813,1.72004106 22.0000256,1.72004106 C22.4750027,1.72004106 22.8600032,1.33512655 22.8600032,0.860063501 C22.8600032,0.385000448 22.4750027,1.37390259e-15 22.0000256,1.37390259e-15 C9.86907398,1.37390259e-15 0,9.86907398 0,21.9999397 C0,34.1308053 9.86907398,44.0000512 22.0000256,44.0000512 C34.1309772,44.0000512 44.0000512,34.1309772 44.0000512,22.0000256 C44.0000512,17.8704661 42.849003,13.8452349 40.6715161,10.3595199 Z" id="路径" fill="#000000"></path>
                    <path d="M22.4177683,18.3607401 C22.4177683,16.4639254 20.8745868,14.9207439 18.9777721,14.9207439 C17.0809574,14.9207439 15.5377759,16.4639254 15.5377759,18.3607401 C15.5377759,20.2575548 17.0809574,21.8007363 18.9777721,21.8007363 C20.8745868,21.8007363 22.4177683,20.2575548 22.4177683,18.3607401 Z M17.257731,18.3607401 C17.257731,17.4123328 18.0293647,16.6406991 18.9777721,16.6406991 C19.9261794,16.6406991 20.6978131,17.4123328 20.6978131,18.3607401 C20.6978131,19.3091475 19.9261794,20.0807812 18.9777721,20.0807812 C18.0293647,20.0807812 17.257731,19.3092334 17.257731,18.3607401 Z M36.9431992,18.3607401 C36.9431992,16.4639254 35.4000178,14.9207439 33.503203,14.9207439 C31.6063883,14.9207439 30.0632069,16.4639254 30.0632069,18.3607401 C30.0632069,20.2575548 31.6063883,21.8007363 33.503203,21.8007363 C35.4000178,21.8007363 36.9431992,20.2575548 36.9431992,18.3607401 Z M31.783162,18.3607401 C31.783162,17.4123328 32.5547957,16.6406991 33.503203,16.6406991 C34.4516104,16.6406991 35.2232441,17.4123328 35.2232441,18.3607401 C35.2232441,19.3091475 34.4516104,20.0807812 33.503203,20.0807812 C32.5547957,20.0807812 31.783162,19.3092334 31.783162,18.3607401 Z M21.1364387,35.1273378 C20.892204,35.5347679 21.024376,36.0629404 21.4318062,36.3071751 C21.8390645,36.5513238 22.3674088,36.4189799 22.6116435,36.0118075 C23.4881211,34.5497511 25.0342244,33.6416485 26.6467576,33.6416485 C28.3014861,33.6416485 29.83023,34.5407277 30.6364106,35.9880888 C30.8670079,36.4029254 31.3902338,36.552282 31.8050718,36.3216834 C31.8054744,36.3214596 31.8058769,36.3212355 31.8062792,36.321011 C32.2212719,36.0898388 32.3702017,35.5661351 32.1390296,35.1513143 C31.0294033,33.1592807 28.9248774,31.9217793 26.6466716,31.9217793 C24.4333487,31.9215215 22.3218619,33.1499995 21.1364387,35.1273377 Z M18.7569984,32.8770617 C20.700821,32.8770617 22.2822447,31.295638 22.2822447,29.3518154 C22.2822447,28.8572445 22.1319398,27.9416653 20.8327352,25.7115846 C20.1570078,24.5516848 19.4915071,23.5910743 19.4634914,23.5506837 C19.1927699,23.1604982 18.6569971,23.0636538 18.2668146,23.3343757 C18.1823633,23.3929705 18.1091015,23.4662323 18.0505067,23.5506837 C18.022491,23.5910743 17.3569902,24.5515989 16.6812629,25.7115846 C15.3819723,27.9416653 15.2317534,28.8572445 15.2317534,29.3518154 C15.2316675,31.295638 16.8131771,32.8770617 18.7569997,32.8770617 L18.7569984,32.8770617 Z M18.7569984,25.6005532 C19.7169214,27.1224222 20.5622036,28.754635 20.5622036,29.3518154 C20.5622036,30.3472306 19.7523277,31.1570206 18.7569984,31.1570206 C17.7616691,31.1570206 16.9517932,30.3471447 16.9517932,29.3518154 C16.9517072,28.754635 17.7970754,27.1224222 18.7569984,25.6005532 Z M27.6682119,1.94932258 L27.6682119,1.94932271 C27.668212,2.42427404 28.0532373,2.80930027 28.5281894,2.80930027 C29.0031408,2.8093002 29.388167,2.4242749 29.388167,1.94932271 C29.388167,1.47437138 29.0031421,1.08934515 28.5281894,1.08934515 C28.0532381,1.08934515 27.6682119,1.47437009 27.6682119,1.94932271 L27.6682119,1.94932258 Z" id="形状" fill="#000000" fill-rule="nonzero"></path>
                </g>
            </g>
        </g>
    </g>
</svg>