<?xml version="1.0" encoding="UTF-8"?>
<svg width="44px" height="44px" viewBox="0 0 44 44" version="1.1" xmlns="http://www.w3.org/2000/svg" xmlns:xlink="http://www.w3.org/1999/xlink">
    <!-- Generator: Sketch 52.4 (67378) - http://www.bohemiancoding.com/sketch -->
    <title>分组</title>
    <desc>Created with Sketch.</desc>
    <g id="Page-1" stroke="none" stroke-width="1" fill="none" fill-rule="evenodd">
        <g id="iPhone-8-Copy-26" transform="translate(-112.000000, -269.000000)">
            <g id="满意" transform="translate(112.000000, 269.000000)">
                <g id="分组">
                    <path d="M23.2162403,43.5 C34.3813822,43.4999983 42.2173913,34.7262321 43.4324806,24.2162188 C43.4324806,13.0510769 34.3813607,4 23.2162618,4 C12.0511199,4 3.00004297,13.0511199 3.00004297,24.2162188 C3.00000169,35.3814037 12.0510984,43.5 23.2162403,43.5 Z" id="路径" fill="#FDDF6D"></path>
                    <path d="M22.0000256,44.0000512 C34.150571,44.0000512 44.0000512,34.150571 44.0000512,22.0000256 C44.0000512,9.84948021 34.150571,0 22.0000256,0 C9.84948021,0 0,9.84948021 0,22.0000256 C0,34.150571 9.84948021,44.0000512 22.0000256,44.0000512 Z M22.0000256,42.2162659 C10.8347118,42.2162659 1.78380676,33.1653179 1.78380676,22.0000471 C1.78380676,10.8347333 10.8347548,1.78382825 22.0000256,1.78382825 C33.1653394,1.78382825 42.2162444,10.8347763 42.2162444,22.0000471 C42.2162444,33.1653609 33.1652964,42.2162659 22.0000256,42.2162659 Z" id="形状" fill="#313340" fill-rule="nonzero"></path>
                    <path d="M17.8675872,15.4172484 C16.4928821,14.0693 14.90769,13.3783831 13.1524489,13.3783831 C11.4067168,13.3783831 9.78525475,14.0615742 8.31897452,15.3940624 C7.95446631,15.7254039 7.92757901,16.2895022 8.25892046,16.6540108 C8.5902619,17.018519 9.15436017,17.0454063 9.5188688,16.7140649 C9.5188688,16.7140649 9.5188688,16.7140649 9.5188688,16.7140649 C10.66941,15.6681699 11.8704911,15.1621693 13.1524394,15.1621693 C14.4248745,15.1621693 15.5676856,15.6604398 16.6189302,16.6908746 C16.965706,17.0407038 17.5304145,17.0431792 17.880245,16.6964037 C18.2300741,16.3496279 18.2325496,15.7849194 17.885774,15.435089 C17.8797946,15.4290569 17.8737293,15.4231105 17.86758,15.4172517 L17.8675872,15.4172484 Z M36.3000422,15.4172484 C34.9253371,14.0693 33.340145,13.3783831 31.5849039,13.3783831 C29.8391718,13.3783831 28.2177098,14.0615742 26.7514296,15.3940624 C26.3869214,15.7254039 26.3600341,16.2895022 26.6913755,16.6540108 C27.0227169,17.018519 27.5868152,17.0454063 27.9513238,16.7140649 C27.9513238,16.7140649 27.9513238,16.7140649 27.9513238,16.7140649 C29.101865,15.6681699 30.3029461,15.1621693 31.5848945,15.1621693 C32.8573295,15.1621693 34.0001406,15.6604398 35.0513852,16.6908746 C35.3981611,17.0407038 35.9628695,17.0431792 36.3127,16.6964037 C36.6625292,16.3496279 36.6650046,15.7849194 36.3182291,15.435089 C36.3122496,15.4290569 36.3061844,15.4231105 36.3000351,15.4172517 L36.3000422,15.4172484 Z" id="形状" fill="#313340" fill-rule="nonzero"></path>
                    <path d="M22.0606546,37.4636803 C29.5281594,37.4636803 34.4371729,33.3193524 36.7887694,25.0318612 C37.3774204,23.4068327 36.6549856,22.594615 34.6226606,22.594615 L8.97956826,22.594615 C7.67264643,22.6154258 7.06021642,23.2742353 7.14226964,24.5698606 C7.22432372,25.8660789 7.22432372,25.9849994 7.14226964,24.9266177 L7.14226964,25.0318612 C9.62054674,33.3199411 14.5925482,37.4636803 22.0606546,37.4636803 Z" id="路径" fill="#313340"></path>
                    <path d="M14.1929814,32.8817023 C16.19082,29.5912118 18.7927914,27.9459622 22.0000256,27.9459622 C25.2072727,27.9459622 27.7485635,29.5912075 29.625097,32.8817023 C27.1515808,34.7588416 24.6096927,35.6977056 22.0000256,35.6977056 C19.3903456,35.6977056 16.7883828,34.7588416 14.1929814,32.8817023 Z" id="路径" fill="#F9A880"></path>
                </g>
            </g>
        </g>
    </g>
</svg>