<?xml version="1.0" encoding="UTF-8"?>
<svg width="44px" height="44px" viewBox="0 0 44 44" version="1.1" xmlns="http://www.w3.org/2000/svg" xmlns:xlink="http://www.w3.org/1999/xlink">
    <!-- Generator: Sketch 52.4 (67378) - http://www.bohemiancoding.com/sketch -->
    <title>一般</title>
    <desc>Created with Sketch.</desc>
    <g id="Page-1" stroke="none" stroke-width="1" fill="none" fill-rule="evenodd">
        <g id="iPhone-8-Copy-26" transform="translate(-112.000000, -369.000000)">
            <g id="一般" transform="translate(112.000000, 369.000000)">
                <g id="分组">
                    <path d="M4.02228359,23.4059647 L4.02228357,23.4068765 C4.02228194,34.1600335 12.73945,42.8771999 23.492607,42.8771999 C34.245764,42.8772015 42.9629304,34.1600335 42.9629304,23.4068765 C42.9629304,23.4062667 42.9629304,23.4056569 42.9629304,23.4050471 L42.9629304,23.4041325 C42.9629304,12.6509754 34.245764,3.93380902 23.4926069,3.93380902 C12.7394499,3.93380902 4.0222835,12.6509754 4.0222835,23.4041325 C4.0222835,23.4047422 4.02228353,23.405352 4.02228359,23.4059618 L4.02228359,23.4059647 Z" id="路径" fill="#FDDF6D"></path>
                    <path d="M5.7772411,23.0024877 L5.7772411,23.0024885 C5.77724153,25.8678114 8.10004419,28.1906273 10.9653799,28.1906273 C13.8307028,28.1906269 16.1535188,25.8678242 16.1535188,23.0024885 C16.1535188,20.1371655 13.8307157,17.8143496 10.9653799,17.8143496 C8.10005708,17.8143496 5.7772411,20.1371526 5.7772411,23.0024884 C5.7772411,23.0024884 5.7772411,23.0024885 5.7772411,23.0024886 L5.7772411,23.0024877 Z" id="路径" fill="#F9A880"></path>
                    <path d="M31.0700518,27.7953995 L31.070052,27.7953996 C33.7172652,28.8919118 36.7521601,27.6348192 37.8486809,24.9876077 C38.9451931,22.3403944 37.6881005,19.3054995 35.040889,18.2089787 C35.040889,18.2089787 35.040889,18.2089787 35.040889,18.2089787 C32.3936757,17.1124665 29.3587808,18.3695591 28.26226,21.0167706 C27.1657478,23.6639838 28.4228404,26.6988788 31.0700519,27.7953996 L31.0700518,27.7953995 Z" id="路径" fill="#F9A880"></path>
                    <circle id="椭圆形" fill="#FFFFFF" fill-rule="nonzero" cx="31" cy="17" r="2"></circle>
                    <circle id="椭圆形-copy" fill="#FFFFFF" fill-rule="nonzero" cx="13" cy="17" r="2"></circle>
                    <path d="M22.0000256,0 L22.0000246,1.95399329e-14 C9.84973706,5.31107278e-07 -9.61650337e-07,9.84973802 -9.61650337e-07,22.0000256 C-4.30543079e-07,34.1503132 9.84973706,44.0000512 22.0000246,44.0000512 C34.1503122,44.0000507 44.0000502,34.1503132 44.0000502,22.0000256 L44.0000505,22.0002511 C43.9838121,9.85675262 34.1437383,0.0164677294 22.0002398,1.06790359e-05 L22.0000256,0 Z M22.0000256,42.0198341 L22.0000247,42.0198341 C10.943379,42.0198336 1.98021627,33.0566713 1.98021627,22.0000256 C1.98021676,10.9433799 10.943379,1.98021715 22.0000247,1.98021715 C33.0566704,1.98021763 42.0198332,10.9433799 42.0198332,22.0000256 L42.0198336,21.999714 C42.0036473,33.0495706 33.0501826,42.0033232 22.000326,42.0198662 L22.0000256,42.0198341 Z" id="形状" fill="#313340" fill-rule="nonzero"></path>
                    <path d="M12.871304,13.7846918 L12.8713039,13.7846918 C10.9574435,13.7846919 9.40595181,15.3361835 9.40595181,17.2500439 C9.40595189,19.1639043 10.9574435,20.715396 12.8713039,20.715396 C14.7851643,20.7153959 16.336656,19.1639043 16.336656,17.2500439 C16.336656,17.2500439 16.336656,17.2500439 16.336656,17.2500439 C16.336656,15.3361835 14.7851643,13.7846918 12.8713039,13.7846918 L12.871304,13.7846918 Z M12.871304,18.7352132 C12.0510768,18.7352132 11.3861519,18.0702882 11.3861519,17.2500611 C11.3861519,16.429834 12.0510768,15.764909 12.871304,15.764909 C13.6915311,15.764909 14.3564561,16.429834 14.3564561,17.2500611 L14.3564562,17.2500738 C14.3605503,18.0702881 13.6989519,18.7385259 12.8787376,18.7426166 C12.8762562,18.742629 12.8737747,18.7426351 12.8712933,18.7426351 L12.871304,18.7352132 Z M27.2401522,17.2500439 C27.2401523,19.1639043 28.7916439,20.715396 30.7055043,20.715396 C32.6193648,20.7153959 34.1708564,19.1639043 34.1708564,17.2500439 C34.1708564,15.3361835 32.6193648,13.7846918 30.7055043,13.7846918 C28.7916439,13.7846919 27.2401522,15.3361835 27.2401522,17.2500439 Z M30.7055045,18.7352132 C29.8852773,18.7352132 29.2203523,18.0702882 29.2203523,17.2500611 C29.2203523,16.429834 29.8852773,15.764909 30.7055044,15.764909 C31.5257315,15.764909 32.1906565,16.429834 32.1906565,17.2500611 C32.1947507,18.0702881 31.5331523,18.7385259 30.7129381,18.7426166 L30.7055045,18.7352132 Z" id="形状" fill="#313340" fill-rule="nonzero"></path>
                    <path d="M17.5,29 C20.7792549,30.3333333 23.7657353,30.3333333 26.4594412,29" id="路径-2" stroke="#313340" stroke-width="2.1" stroke-linecap="round" fill-rule="nonzero"></path>
                </g>
            </g>
        </g>
    </g>
</svg>